<svg xmlns="http://www.w3.org/2000/svg" xmlns:xlink="http://www.w3.org/1999/xlink" width="250" zoomAndPan="magnify" viewBox="0 0 187.5 74.999997" height="100" preserveAspectRatio="xMidYMid meet" version="1.0"><defs><g/></defs><g fill="#000000" fill-opacity="1"><g transform="translate(10.758629, 59.092441)"><g><path d="M 35.09375 -10.375 C 35.539062 -10.375 35.9375 -10.203125 36.28125 -9.859375 L 39.515625 -6.359375 C 37.722656 -4.148438 35.523438 -2.457031 32.921875 -1.28125 C 30.316406 -0.101562 27.191406 0.484375 23.546875 0.484375 C 20.273438 0.484375 17.335938 -0.0703125 14.734375 -1.1875 C 12.128906 -2.300781 9.90625 -3.847656 8.0625 -5.828125 C 6.21875 -7.816406 4.800781 -10.191406 3.8125 -12.953125 C 2.832031 -15.710938 2.34375 -18.722656 2.34375 -21.984375 C 2.34375 -25.296875 2.867188 -28.320312 3.921875 -31.0625 C 4.972656 -33.8125 6.457031 -36.179688 8.375 -38.171875 C 10.289062 -40.160156 12.578125 -41.707031 15.234375 -42.8125 C 17.890625 -43.914062 20.832031 -44.46875 24.0625 -44.46875 C 27.257812 -44.46875 30.097656 -43.9375 32.578125 -42.875 C 35.066406 -41.820312 37.1875 -40.445312 38.9375 -38.75 L 36.1875 -34.953125 C 36.03125 -34.703125 35.820312 -34.484375 35.5625 -34.296875 C 35.3125 -34.117188 34.960938 -34.03125 34.515625 -34.03125 C 34.210938 -34.03125 33.898438 -34.113281 33.578125 -34.28125 C 33.253906 -34.457031 32.898438 -34.671875 32.515625 -34.921875 C 32.128906 -35.179688 31.679688 -35.460938 31.171875 -35.765625 C 30.671875 -36.066406 30.082031 -36.34375 29.40625 -36.59375 C 28.738281 -36.851562 27.960938 -37.066406 27.078125 -37.234375 C 26.203125 -37.410156 25.1875 -37.5 24.03125 -37.5 C 22.0625 -37.5 20.257812 -37.148438 18.625 -36.453125 C 17 -35.753906 15.597656 -34.738281 14.421875 -33.40625 C 13.242188 -32.082031 12.328125 -30.460938 11.671875 -28.546875 C 11.023438 -26.628906 10.703125 -24.441406 10.703125 -21.984375 C 10.703125 -19.515625 11.050781 -17.316406 11.75 -15.390625 C 12.445312 -13.460938 13.394531 -11.835938 14.59375 -10.515625 C 15.789062 -9.203125 17.203125 -8.195312 18.828125 -7.5 C 20.453125 -6.800781 22.195312 -6.453125 24.0625 -6.453125 C 25.175781 -6.453125 26.179688 -6.507812 27.078125 -6.625 C 27.984375 -6.75 28.816406 -6.941406 29.578125 -7.203125 C 30.335938 -7.472656 31.054688 -7.8125 31.734375 -8.21875 C 32.410156 -8.632812 33.085938 -9.148438 33.765625 -9.765625 C 33.960938 -9.941406 34.171875 -10.085938 34.390625 -10.203125 C 34.617188 -10.316406 34.851562 -10.375 35.09375 -10.375 Z M 35.09375 -10.375 "/></g></g></g><g fill="#b8975a" fill-opacity="1"><g transform="translate(62.87356, 59.092441)"><g><path d="M 14.53125 -20.5625 C 12.914062 -19.507812 11.738281 -18.316406 11 -16.984375 C 10.257812 -15.660156 9.890625 -14.238281 9.890625 -12.71875 C 9.890625 -11.601562 10.082031 -10.597656 10.46875 -9.703125 C 10.851562 -8.804688 11.375 -8.050781 12.03125 -7.4375 C 12.6875 -6.820312 13.453125 -6.34375 14.328125 -6 C 15.210938 -5.664062 16.15625 -5.5 17.15625 -5.5 C 18.9375 -5.5 20.566406 -5.773438 22.046875 -6.328125 C 23.523438 -6.890625 24.863281 -7.671875 26.0625 -8.671875 Z M 43.828125 0 L 36.46875 0 C 35.695312 0 35.070312 -0.0859375 34.59375 -0.265625 C 34.113281 -0.453125 33.613281 -0.835938 33.09375 -1.421875 L 30.046875 -4.5625 C 28.117188 -2.976562 25.957031 -1.738281 23.5625 -0.84375 C 21.175781 0.0390625 18.59375 0.484375 15.8125 0.484375 C 14.132812 0.484375 12.476562 0.195312 10.84375 -0.375 C 9.207031 -0.957031 7.75 -1.796875 6.46875 -2.890625 C 5.195312 -3.984375 4.171875 -5.304688 3.390625 -6.859375 C 2.609375 -8.410156 2.21875 -10.160156 2.21875 -12.109375 C 2.21875 -13.484375 2.441406 -14.785156 2.890625 -16.015625 C 3.335938 -17.242188 3.957031 -18.382812 4.75 -19.4375 C 5.539062 -20.488281 6.484375 -21.4375 7.578125 -22.28125 C 8.671875 -23.125 9.863281 -23.847656 11.15625 -24.453125 C 10.0625 -25.972656 9.269531 -27.457031 8.78125 -28.90625 C 8.300781 -30.351562 8.0625 -31.800781 8.0625 -33.25 C 8.0625 -34.769531 8.335938 -36.210938 8.890625 -37.578125 C 9.453125 -38.941406 10.257812 -40.128906 11.3125 -41.140625 C 12.363281 -42.160156 13.660156 -42.96875 15.203125 -43.5625 C 16.742188 -44.164062 18.488281 -44.46875 20.4375 -44.46875 C 22.21875 -44.46875 23.8125 -44.191406 25.21875 -43.640625 C 26.632812 -43.097656 27.84375 -42.367188 28.84375 -41.453125 C 29.851562 -40.535156 30.644531 -39.488281 31.21875 -38.3125 C 31.800781 -37.144531 32.140625 -35.929688 32.234375 -34.671875 L 27.46875 -33.671875 C 26.570312 -33.484375 25.921875 -33.867188 25.515625 -34.828125 C 25.335938 -35.347656 25.097656 -35.847656 24.796875 -36.328125 C 24.503906 -36.804688 24.15625 -37.222656 23.75 -37.578125 C 23.34375 -37.929688 22.863281 -38.210938 22.3125 -38.421875 C 21.769531 -38.640625 21.144531 -38.75 20.4375 -38.75 C 19.582031 -38.75 18.820312 -38.597656 18.15625 -38.296875 C 17.488281 -38.003906 16.925781 -37.609375 16.46875 -37.109375 C 16.007812 -36.617188 15.660156 -36.039062 15.421875 -35.375 C 15.179688 -34.71875 15.0625 -34.023438 15.0625 -33.296875 C 15.0625 -32.691406 15.117188 -32.101562 15.234375 -31.53125 C 15.359375 -30.96875 15.5625 -30.398438 15.84375 -29.828125 C 16.125 -29.265625 16.492188 -28.679688 16.953125 -28.078125 C 17.410156 -27.484375 17.972656 -26.84375 18.640625 -26.15625 L 30.328125 -14.015625 C 30.992188 -15.296875 31.53125 -16.644531 31.9375 -18.0625 C 32.34375 -19.476562 32.601562 -20.921875 32.71875 -22.390625 C 32.78125 -22.847656 32.941406 -23.21875 33.203125 -23.5 C 33.472656 -23.789062 33.84375 -23.9375 34.3125 -23.9375 L 38.984375 -23.9375 C 38.960938 -21.257812 38.578125 -18.703125 37.828125 -16.265625 C 37.078125 -13.835938 36.003906 -11.597656 34.609375 -9.546875 Z M 43.828125 0 "/></g></g></g><g fill="#000000" fill-opacity="1"><g transform="translate(118.751893, 59.092441)"><g><path d="M 52.59375 -43.984375 L 52.59375 0 L 45.375 0 L 45.375 -28.40625 C 45.375 -29.539062 45.4375 -30.769531 45.5625 -32.09375 L 32.265625 -7.109375 C 31.640625 -5.921875 30.675781 -5.328125 29.375 -5.328125 L 28.21875 -5.328125 C 26.925781 -5.328125 25.960938 -5.921875 25.328125 -7.109375 L 11.890625 -32.171875 C 11.953125 -31.503906 12.003906 -30.847656 12.046875 -30.203125 C 12.085938 -29.554688 12.109375 -28.957031 12.109375 -28.40625 L 12.109375 0 L 4.890625 0 L 4.890625 -43.984375 L 11.078125 -43.984375 C 11.441406 -43.984375 11.753906 -43.972656 12.015625 -43.953125 C 12.273438 -43.929688 12.507812 -43.878906 12.71875 -43.796875 C 12.9375 -43.710938 13.128906 -43.578125 13.296875 -43.390625 C 13.472656 -43.210938 13.644531 -42.972656 13.8125 -42.671875 L 26.984375 -18.25 C 27.328125 -17.601562 27.644531 -16.929688 27.9375 -16.234375 C 28.226562 -15.546875 28.515625 -14.835938 28.796875 -14.109375 C 29.085938 -14.859375 29.382812 -15.582031 29.6875 -16.28125 C 29.988281 -16.988281 30.3125 -17.664062 30.65625 -18.3125 L 43.640625 -42.671875 C 43.804688 -42.972656 43.976562 -43.210938 44.15625 -43.390625 C 44.34375 -43.578125 44.539062 -43.710938 44.75 -43.796875 C 44.96875 -43.878906 45.207031 -43.929688 45.46875 -43.953125 C 45.726562 -43.972656 46.039062 -43.984375 46.40625 -43.984375 Z M 52.59375 -43.984375 "/></g></g></g></svg>