<svg xmlns="http://www.w3.org/2000/svg" xmlns:xlink="http://www.w3.org/1999/xlink" width="350" zoomAndPan="magnify" viewBox="0 0 262.5 112.499997" height="150" preserveAspectRatio="xMidYMid meet" version="1.0"><defs><g/></defs><g fill="#0d0d0d" fill-opacity="1"><g transform="translate(0.829038, 90.721786)"><g><path d="M 54.875 -13.65625 C 55.375 -13.65625 55.804688 -13.457031 56.171875 -13.0625 L 59.71875 -9.234375 C 57.019531 -6.085938 53.738281 -3.640625 49.875 -1.890625 C 46.007812 -0.140625 41.335938 0.734375 35.859375 0.734375 C 31.117188 0.734375 26.8125 -0.0859375 22.9375 -1.734375 C 19.0625 -3.378906 15.753906 -5.6875 13.015625 -8.65625 C 10.273438 -11.625 8.148438 -15.1875 6.640625 -19.34375 C 5.140625 -23.5 4.390625 -28.066406 4.390625 -33.046875 C 4.390625 -38.035156 5.171875 -42.601562 6.734375 -46.75 C 8.304688 -50.90625 10.515625 -54.472656 13.359375 -57.453125 C 16.203125 -60.441406 19.609375 -62.757812 23.578125 -64.40625 C 27.554688 -66.050781 31.941406 -66.875 36.734375 -66.875 C 41.441406 -66.875 45.597656 -66.117188 49.203125 -64.609375 C 52.804688 -63.109375 55.972656 -61.066406 58.703125 -58.484375 L 55.75 -54.375 C 55.570312 -54.0625 55.335938 -53.804688 55.046875 -53.609375 C 54.753906 -53.410156 54.359375 -53.3125 53.859375 -53.3125 C 53.304688 -53.3125 52.628906 -53.609375 51.828125 -54.203125 C 51.035156 -54.804688 49.988281 -55.476562 48.6875 -56.21875 C 47.394531 -56.957031 45.78125 -57.625 43.84375 -58.21875 C 41.90625 -58.820312 39.519531 -59.125 36.6875 -59.125 C 33.28125 -59.125 30.160156 -58.53125 27.328125 -57.34375 C 24.492188 -56.164062 22.050781 -54.453125 20 -52.203125 C 17.957031 -49.953125 16.367188 -47.210938 15.234375 -43.984375 C 14.097656 -40.753906 13.53125 -37.109375 13.53125 -33.046875 C 13.53125 -28.921875 14.117188 -25.242188 15.296875 -22.015625 C 16.484375 -18.785156 18.097656 -16.054688 20.140625 -13.828125 C 22.191406 -11.597656 24.609375 -9.894531 27.390625 -8.71875 C 30.179688 -7.550781 33.191406 -6.96875 36.421875 -6.96875 C 38.390625 -6.96875 40.164062 -7.082031 41.75 -7.3125 C 43.332031 -7.539062 44.789062 -7.898438 46.125 -8.390625 C 47.46875 -8.890625 48.71875 -9.515625 49.875 -10.265625 C 51.03125 -11.023438 52.175781 -11.925781 53.3125 -12.96875 C 53.832031 -13.425781 54.351562 -13.65625 54.875 -13.65625 Z M 54.875 -13.65625 "/></g></g></g><g fill="#0d0d0d" fill-opacity="1"><g transform="translate(62.4834, 90.721786)"><g/></g></g><g fill="#e8b9bc" fill-opacity="1"><g transform="translate(86.11405, 90.721786)"><g><path d="M 22.296875 -32.59375 C 19.035156 -30.863281 16.582031 -28.765625 14.9375 -26.296875 C 13.289062 -23.835938 12.46875 -21.164062 12.46875 -18.28125 C 12.46875 -16.28125 12.832031 -14.515625 13.5625 -12.984375 C 14.300781 -11.460938 15.269531 -10.175781 16.46875 -9.125 C 17.675781 -8.082031 19.046875 -7.289062 20.578125 -6.75 C 22.117188 -6.21875 23.691406 -5.953125 25.296875 -5.953125 C 28.742188 -5.953125 31.84375 -6.582031 34.59375 -7.84375 C 37.34375 -9.101562 39.75 -10.796875 41.8125 -12.921875 Z M 64.9375 0 L 56.953125 0 C 56.066406 0 55.34375 -0.101562 54.78125 -0.3125 C 54.226562 -0.53125 53.628906 -0.976562 52.984375 -1.65625 L 46.296875 -8.40625 C 43.398438 -5.601562 40.066406 -3.378906 36.296875 -1.734375 C 32.523438 -0.0859375 28.378906 0.734375 23.859375 0.734375 C 21.398438 0.734375 18.992188 0.320312 16.640625 -0.5 C 14.285156 -1.332031 12.171875 -2.539062 10.296875 -4.125 C 8.421875 -5.71875 6.910156 -7.648438 5.765625 -9.921875 C 4.628906 -12.203125 4.0625 -14.769531 4.0625 -17.625 C 4.0625 -19.78125 4.421875 -21.816406 5.140625 -23.734375 C 5.867188 -25.660156 6.878906 -27.441406 8.171875 -29.078125 C 9.460938 -30.710938 10.984375 -32.175781 12.734375 -33.46875 C 14.492188 -34.757812 16.421875 -35.863281 18.515625 -36.78125 C 16.628906 -39.1875 15.238281 -41.503906 14.34375 -43.734375 C 13.457031 -45.960938 13.015625 -48.273438 13.015625 -50.671875 C 13.015625 -52.921875 13.421875 -55.03125 14.234375 -57 C 15.054688 -58.96875 16.234375 -60.679688 17.765625 -62.140625 C 19.304688 -63.609375 21.175781 -64.765625 23.375 -65.609375 C 25.570312 -66.453125 28.039062 -66.875 30.78125 -66.875 C 33.21875 -66.875 35.4375 -66.484375 37.4375 -65.703125 C 39.4375 -64.921875 41.15625 -63.882812 42.59375 -62.59375 C 44.039062 -61.300781 45.1875 -59.800781 46.03125 -58.09375 C 46.882812 -56.382812 47.375 -54.601562 47.5 -52.75 L 42.375 -51.734375 C 41.351562 -51.492188 40.597656 -51.972656 40.109375 -53.171875 C 39.890625 -53.972656 39.539062 -54.800781 39.0625 -55.65625 C 38.59375 -56.519531 37.976562 -57.304688 37.21875 -58.015625 C 36.46875 -58.722656 35.5625 -59.304688 34.5 -59.765625 C 33.4375 -60.234375 32.195312 -60.46875 30.78125 -60.46875 C 29.25 -60.46875 27.859375 -60.21875 26.609375 -59.71875 C 25.359375 -59.226562 24.296875 -58.546875 23.421875 -57.671875 C 22.546875 -56.796875 21.875 -55.765625 21.40625 -54.578125 C 20.945312 -53.390625 20.71875 -52.101562 20.71875 -50.71875 C 20.71875 -49.644531 20.84375 -48.613281 21.09375 -47.625 C 21.34375 -46.644531 21.734375 -45.644531 22.265625 -44.625 C 22.804688 -43.613281 23.492188 -42.582031 24.328125 -41.53125 C 25.160156 -40.488281 26.160156 -39.382812 27.328125 -38.21875 L 46.34375 -18.875 C 47.507812 -20.96875 48.445312 -23.144531 49.15625 -25.40625 C 49.863281 -27.664062 50.328125 -29.921875 50.546875 -32.171875 C 50.609375 -32.753906 50.789062 -33.210938 51.09375 -33.546875 C 51.40625 -33.890625 51.835938 -34.0625 52.390625 -34.0625 L 57.421875 -34.0625 C 57.390625 -30.519531 56.832031 -27.050781 55.75 -23.65625 C 54.675781 -20.257812 53.125 -17.066406 51.09375 -14.078125 Z M 64.9375 0 "/></g></g></g><g fill="#0d0d0d" fill-opacity="1"><g transform="translate(151.833676, 90.721786)"><g/></g></g><g fill="#0d0d0d" fill-opacity="1"><g transform="translate(175.461694, 90.721786)"><g><path d="M 77.265625 -66.140625 L 77.265625 0 L 69.421875 0 L 69.421875 -48.609375 C 69.421875 -49.253906 69.441406 -49.941406 69.484375 -50.671875 C 69.535156 -51.410156 69.59375 -52.164062 69.65625 -52.9375 L 46.9375 -11.578125 C 46.226562 -10.203125 45.148438 -9.515625 43.703125 -9.515625 L 42.421875 -9.515625 C 40.972656 -9.515625 39.894531 -10.203125 39.1875 -11.578125 L 16.015625 -53.125 C 16.203125 -51.488281 16.296875 -49.984375 16.296875 -48.609375 L 16.296875 0 L 8.453125 0 L 8.453125 -66.140625 L 15.046875 -66.140625 C 15.847656 -66.140625 16.460938 -66.0625 16.890625 -65.90625 C 17.328125 -65.757812 17.742188 -65.332031 18.140625 -64.625 L 40.984375 -23.90625 C 41.359375 -23.164062 41.722656 -22.394531 42.078125 -21.59375 C 42.429688 -20.800781 42.757812 -19.988281 43.0625 -19.15625 C 43.375 -19.988281 43.695312 -20.8125 44.03125 -21.625 C 44.375 -22.4375 44.742188 -23.210938 45.140625 -23.953125 L 67.578125 -64.625 C 67.941406 -65.332031 68.347656 -65.757812 68.796875 -65.90625 C 69.242188 -66.0625 69.867188 -66.140625 70.671875 -66.140625 Z M 77.265625 -66.140625 "/></g></g></g></svg>