<svg width="260" height="64" viewBox="0 0 260 64" fill="none" xmlns="http://www.w3.org/2000/svg" role="img" aria-labelledby="logoTitle logoDesc">
  <title id="logoTitle">C&amp;M Contabilidade e BPO Financeiro</title>
  <desc id="logoDesc">Wordmark da marca C&amp;M em estilo editorial com detalhe dourado.</desc>
  <rect x="1" y="1" width="258" height="62" rx="16" fill="#0C0F14"/>
  <path d="M29 16H35L48 48H42.1L39.1 39.8H24.8L21.9 48H16L29 16ZM26.3 35.2H37.6L32 20.1L26.3 35.2Z" fill="#FAFBFD"/>
  <path d="M58 16H74.3C79.7 16 83.4 17.4 85.8 19.8C88 22 89.1 24.9 89.1 28.2C89.1 33.1 86.4 36.7 82.2 38.2L91 48H84L76 39H63.8V48H58V16ZM63.8 21V34.1H74.1C79.1 34.1 83 31.9 83 27.9C83 23.5 79.5 21 74.1 21H63.8Z" fill="#FAFBFD"/>
  <path d="M104 16H109.7V44.9H128.9V48H104V16Z" fill="#FAFBFD"/>
  <path d="M137 16H143.1V48H137V16Z" fill="#B8975A"/>
  <path d="M149 16H155.2L165.3 39.5L175.4 16H181.6L168.7 48H162.3L149 16Z" fill="#FAFBFD"/>
  <path d="M189 16H216V21H194.7V29.5H213.2V34.4H194.7V43H216.5V48H189V16Z" fill="#FAFBFD"/>
  <path d="M223 16H228.8V43H247.4V48H223V16Z" fill="#FAFBFD"/>
  <rect x="17" y="54" width="226" height="2" rx="1" fill="#B8975A"/>
  <text x="16" y="60" fill="#8E9BB5" font-family="DM Sans, Arial, sans-serif" font-size="9" letter-spacing="2">CONTABILIDADE &amp; BPO FINANCEIRO</text>
</svg>

